# xmcd
#
# Track frame offsets:
#	150
#	6113
#	33593
#	62450
#	85781
#	107751
#	140041
#	163816
#	189589
#	193057
#	216915
#	242641
#	252083
#	265930
#	295893
#	303350
#	327210
#
# Disc length: 4760 seconds
#
# Revision: 1
# Processed by: cddbd v1.5.2PL0 Copyright (c) Steve Scherf et al.
# Submitted via: EZCDAudioConverter 3.0.8.1
#
DISCID=f5129611
DTITLE=Debonaire - Execute Self Extraction
DYEAR=2010
DGENRE=Electro bass
TTITLE0=Recipe For disaster
TTITLE1=rock planet
TTITLE2=micro drumulator
TTITLE3=de cyber trans vanish
TTITLE4=freaks in the beoroom
TTITLE5=bitch get off my myspace
TTITLE6=crystalih fuzion
TTITLE7=woofer woofer
TTITLE8=dicta boelche
TTITLE9=my town
TTITLE10=digital stalher
TTITLE11=caroulsel of confusion
TTITLE12=tr-deb [episode iv]
TTITLE13=iphone in my rocker
TTITLE14=legend at grovers mill
TTITLE15=beat technician [youtube video remix]
TTITLE16=welcome to the boss level
EXTD=
EXTT0=
EXTT1=
EXTT2=
EXTT3=
EXTT4=
EXTT5=
EXTT6=
EXTT7=
EXTT8=
EXTT9=
EXTT10=
EXTT11=
EXTT12=
EXTT13=
EXTT14=
EXTT15=
EXTT16=
PLAYORDER=
